# xmcd
#
# Track frame offsets:
#  150
#  12475
#  23337
#  31478
#  43541
#  61894
#  74813
#  85311
#  100521
#  115568
#  127900
#  144989
#
# Disc length: 2279 seconds
#
# Revision: 0
# Processed by: cddbd v1.5.1PL0 Copyright (c) Steve Scherf et al.
# Submitted via: AltoMP3_Maker 3.0
#
DISCID=9208e50c
DTITLE=The Mustangs - Let it Roll
DYEAR=1900
DGENRE=
TTITLE0=Soft Top Down
TTITLE1=Just Let it Roll
TTITLE2=I Hates to See You Go
TTITLE3=All You do is to Make me Cry
TTITLE4=No Time For The Blues
TTITLE5=Al Capone
TTITLE6=Double Headed Romeo
TTITLE7=Prohibition Blues
TTITLE8=I See Red
TTITLE9=Old Mose Blues
TTITLE10=Done my Baby Wrong
TTITLE11=In Need of You
EXTD=
EXTT0=
EXTT1=
EXTT2=
EXTT3=
EXTT4=
EXTT5=
EXTT6=
EXTT7=
EXTT8=
EXTT9=
EXTT10=
EXTT11=
PLAYORDER=
